# xmcd CD database file
#
# Track frame offsets:
#	150
#	38626
#	67802
#	87453
#	124129
#	128855
#	172656
#	222786
#	278067
#
# Disc length: 4251 seconds
#
# Revision: 0
# Processed by: cddbd v1.5.2PL0 Copyright (c) Steve Scherf et al.
# Submitted via: CDex 1.51
#
DISCID=74109909
DTITLE=Laboratorium - 1984: No. 8
DYEAR=1984
DGENRE=Jazz
TTITLE0=Florek i Faunek
TTITLE1=Karolinka
TTITLE2=Lato 1980
TTITLE3=Szczeka w szklance, czyli jaja po wiedensku
TTITLE4=No. 8
TTITLE5=Na kolana pastuszkowie
TTITLE6=Na kolana pastuszkowie
TTITLE7=Lato 1980
TTITLE8=Karolinka
EXTD=YEAR: 1984
EXTT0=
EXTT1=
EXTT2=
EXTT3=
EXTT4=
EXTT5=
EXTT6=
EXTT7=
EXTT8=
PLAYORDER=
